<?xml version="1.0" encoding="UTF-8"?>
<svg width="100px" height="100px" viewBox="0 0 100 100" version="1.1" xmlns="http://www.w3.org/2000/svg" xmlns:xlink="http://www.w3.org/1999/xlink">
    <!-- Generator: Sketch 57.1 (83088) - https://sketch.com -->
    <title>illustration_1_sl</title>
    <desc>Created with Sketch.</desc>
    <g id="illustration_1_sl" stroke="none" stroke-width="1" fill="none" fill-rule="evenodd">
        <rect id="bounding-box" fill-opacity="0" fill="#FFFFFF" x="0" y="0" width="100" height="100"></rect>
        <g id="SL_SatisfyanyCraving" transform="translate(1.000000, 3.000000)" fill-rule="nonzero">
            <path d="M80.2397176,6.7693284 C80.275372,7.29399729 79.4877722,7.78796502 78.4816736,7.87456976 L2.17588806,14.4125398 C1.16933242,14.4982281 0.312251662,13.9469821 0.261512481,13.1799116 L0.122094011,11.0922334 C0.07135483,10.325163 0.847070056,9.66348448 1.85591125,9.61445424 L78.3504831,5.909238 C79.3593243,5.86112426 80.2049776,6.24557596 80.2397176,6.7693284" id="Fill-2" fill="#E54359"></path>
            <path d="M55.4692153,5.80723687 C55.4692153,5.80723687 55.5780074,10.1594684 56.988648,12.0102436 C58.4002029,13.8601024 60.137677,15.8194772 58.4002029,18.757623 C56.663643,21.6957688 54.4923718,26.7014307 56.0118046,29.5309769 C57.5316944,32.3609813 59.8117578,33.6669257 58.61733,36.9317867 C57.4233594,40.1966477 47.1100495,43.7873074 45.6984946,44.0045066 C44.2869398,44.2230804 42.3337098,38.128215 42.1165827,37.2575854 C41.8989985,36.3874141 40.3791086,29.7486343 39.8365194,27.8987755 C39.293473,26.0489167 40.3791086,23.2189123 41.2480742,21.4781114 C42.1165827,19.7363939 43.5272234,16.7982482 42.6596291,14.7311902 C41.7906635,12.6627576 40.4883578,10.051327 40.1624386,8.3096096 C39.8365194,6.56880866 39.076803,5.58957947 39.6193922,5.37146385 C40.1624386,5.15380645 55.4692153,5.80723687 55.4692153,5.80723687" id="Fill-4" fill="#F9A51A"></path>
            <path d="M42.0335716,31.4133239 C42.8353421,32.7055215 43.7413336,34.1672628 43.7413336,36.9702318 C43.7413336,37.543931 43.7029364,38.0594353 43.6343699,38.5318664 C43.5210067,39.345676 43.3148502,40.024767 43.0675538,40.6154205 C42.6131867,40.4041782 42.1496774,40.2080575 41.6815971,40.0334734 C41.4873254,39.9583242 41.2916825,39.8886739 41.0951253,39.8208565 C41.3405932,39.2425751 41.5174947,38.583646 41.5837756,37.7318036 C41.6016029,37.4939843 41.6121164,37.2396688 41.6121164,36.9702318 C41.6121164,34.775787 40.9694202,33.7392796 40.2266168,32.538269 C39.4257606,31.2460714 38.5220546,29.7824972 38.5220546,26.981361 C38.5220546,24.1811414 39.4257606,22.7143596 40.2266168,21.4226202 C40.9694202,20.2234425 41.6121164,19.1851022 41.6121164,16.9915738 C41.6121164,14.797129 40.9694202,13.7610798 40.2266168,12.5591526 C39.8764707,11.9914106 39.5043834,11.3929673 39.1962914,10.6607219 C38.9229398,10.006375 38.7007845,9.2438868 38.5938208,8.30498152 C38.5462814,7.90495014 38.5220546,7.47192648 38.5220546,7.00041182 C38.5220546,6.69065098 38.532111,6.3978445 38.5545094,6.11970125 C38.6221616,5.19225162 38.7999773,4.42884693 39.032189,3.77037602 L39.5222107,3.81757331 L41.2400291,3.98528406 C40.9575353,4.60618043 40.7472648,5.31230686 40.6754986,6.25121214 C40.6585855,6.48674036 40.6489862,6.73464068 40.6489862,7.00041182 C40.6489862,7.47192648 40.677327,7.88891223 40.7308089,8.2637412 C40.864742,9.20264648 41.1486071,9.89181856 41.5005817,10.5347098 C41.6655982,10.8380554 41.8470708,11.1304037 42.0335716,11.4337494 C42.8353421,12.7264052 43.7413336,14.1904376 43.7413336,16.9915738 C43.7413336,19.7922517 42.8353421,21.2553677 42.0335716,22.5475653 C41.2916825,23.7513252 40.6489862,24.7869162 40.6489862,26.981361 C40.6489862,29.1730565 41.2916825,30.2095639 42.0335716,31.4133239" id="Fill-6" fill="#FFDD00"></path>
            <path d="M47.3876522,31.4133239 C48.1866801,32.7055215 49.0945,34.1672628 49.0945,36.9702318 C49.0945,38.9373965 48.6483609,40.2437991 48.1044003,41.2963445 C47.8731028,41.7421985 47.6267206,42.1431463 47.3876522,42.5271398 C47.2582902,42.7365491 47.1321279,42.9413762 47.0137365,43.145745 C46.5753682,42.8034502 46.1232867,42.4794843 45.6611488,42.1720146 C45.5281298,42.0849516 45.3969394,42.0001798 45.2643775,41.9158662 C45.3699698,41.7403656 45.4741909,41.5685308 45.5797832,41.4012782 C45.8563346,40.9572572 46.1155158,40.5366056 46.3358427,40.0719643 C46.7111298,39.2774003 46.9680255,38.3531582 46.9680255,36.9702318 C46.9680255,34.775787 46.3262434,33.7392796 45.5797832,32.538269 C44.7816696,31.2460714 43.8738497,29.7824972 43.8738497,26.981361 C43.8738497,24.1811414 44.7816696,22.7143596 45.5797832,21.4226202 C46.3262434,20.2234425 46.9680255,19.1851022 46.9680255,16.9915738 C46.9680255,14.797129 46.3262434,13.7610798 45.5797832,12.5591526 C45.1843833,11.9190108 44.7647566,11.2380868 44.4370089,10.3761635 C44.2066256,9.7603076 44.0246959,9.05234832 43.9323598,8.200506 C43.8939625,7.83071752 43.8738497,7.43160258 43.8738497,7.00316118 C43.8738497,6.81208089 43.8770494,6.63062335 43.8852774,6.45328986 C43.9227604,5.61198673 44.0466372,4.89990336 44.225367,4.27763232 L46.3893246,4.4879581 C46.1831681,5.06440654 46.0446638,5.73295842 46.0099235,6.5857172 C46.003981,6.71997745 46.0021526,6.8579035 46.0021526,7.00316118 C46.0021526,7.42793678 46.0268366,7.81009734 46.0698049,8.1583492 C46.178597,9.01294088 46.4098945,9.66362192 46.7056445,10.251526 C46.9081442,10.6607219 47.1430986,11.0383002 47.3876522,11.4337494 C48.1866801,12.7264052 49.0945,14.1904376 49.0945,16.9915738 C49.0945,19.7922517 48.1866801,21.2553677 47.3876522,22.5475653 C46.6448489,23.7513252 46.0021526,24.7869162 46.0021526,26.981361 C46.0021526,29.1730565 46.6448489,30.2095639 47.3876522,31.4133239" id="Fill-8" fill="#FFDD00"></path>
            <path d="M52.3578064,55.8847973 C52.4245444,56.1808114 52.4862542,56.4782001 52.5397361,56.7769635 L52.318495,56.7769635 C52.3148381,56.5345619 52.3034103,56.3054489 52.2837546,56.0905408 C52.1658203,54.7713078 51.773163,53.9231314 51.2872554,53.1015319 C51.172978,52.9072441 51.0550437,52.7147891 50.9329954,52.5186683 C50.6098188,51.9953742 50.2679007,51.4432117 49.9748934,50.785199 C49.7838215,50.3530918 49.6133195,49.8751619 49.4857859,49.3317058 C49.7376534,49.696912 49.9748934,50.0708245 50.1997914,50.452985 C50.5810209,51.1027497 50.9275101,51.7768002 51.2292025,52.4668888 L51.3201673,52.678131 C51.3498794,52.7477814 51.3782202,52.81789 51.4061039,52.8875403 C51.8069892,53.8631038 52.1246805,54.8643278 52.3578064,55.8847973" id="Fill-10" fill="#FFDD00"></path>
            <path d="M52.7417329,31.4133239 C53.5407607,32.7055215 54.4485806,34.1672628 54.4485806,36.9702318 C54.4485806,37.5975434 54.4051552,38.156121 54.3228754,38.6642938 C54.1281467,39.9120434 53.725433,40.8303286 53.2852364,41.6184774 C52.3147924,42.1940094 51.3845741,42.8501892 50.5037236,43.5856421 C50.5658906,43.6475026 50.6266862,43.7093631 50.6865675,43.773973 C50.8438133,43.9366433 50.9996877,44.1011465 51.1482483,44.2688572 C51.313265,44.4484818 51.471425,44.6276482 51.625928,44.8109387 C51.5326776,45.1312387 51.4613685,45.4868222 51.4161146,45.8786055 C51.3768032,46.2071536 51.3544048,46.5636535 51.3544048,46.9600191 C51.3544048,47.3527189 51.3768032,47.7046366 51.413372,48.0304353 C51.3845741,47.9882785 51.3544048,47.9456634 51.3256069,47.9016738 C51.059569,47.5176803 50.7775323,47.1396438 50.4849821,46.7730629 C50.1206657,46.3120874 49.7339508,45.8689828 49.3284945,45.4373338 C49.3687202,45.135821 49.422202,44.8503462 49.4857402,44.584575 C49.497168,44.5405853 49.5072244,44.4998032 49.5177379,44.4585628 L49.5195663,44.4567299 C49.6480142,43.9448914 49.8144022,43.4926222 49.9990745,43.0838846 C50.2856822,42.4483249 50.6184582,41.9131168 50.9338638,41.4012782 C51.1999018,40.9682546 51.4567974,40.5572258 51.6730103,40.1054149 C52.0578967,39.3044356 52.3193635,38.3733202 52.3193635,36.9702318 C52.3193635,34.775787 51.6775814,33.7392796 50.9338638,32.538269 C50.1348361,31.2460714 49.2270161,29.7824972 49.2270161,26.981361 C49.2270161,24.1811414 50.1348361,22.7143596 50.9338638,21.4226202 C51.6775814,20.2234425 52.3193635,19.1851022 52.3193635,16.9915738 C52.3193635,14.797129 51.6775814,13.7610798 50.9338638,12.5591526 C50.4954956,11.8511934 50.0260439,11.0919127 49.6900682,10.0888558 C49.497168,9.5169896 49.3508929,8.8644756 49.2786695,8.09648864 C49.2457576,7.75648489 49.2270161,7.39311159 49.2270161,7.00316118 C49.2270161,6.93030322 49.2270161,6.8579035 49.2283874,6.78825314 C49.2411865,6.02851426 49.3216378,5.36958512 49.4491714,4.78809619 L51.5866166,4.99658907 C51.4444554,5.53317184 51.3608044,6.15635934 51.3544048,6.91976402 L51.3544048,7.00316118 C51.3544048,7.38669642 51.3749748,7.73586471 51.4097151,8.05524832 C51.4979373,8.82323528 51.683981,9.42809368 51.9239636,9.9669676 C52.1570895,10.4888871 52.4409546,10.9471133 52.7417329,11.4337494 C53.5407607,12.7264052 54.4485806,14.1904376 54.4485806,16.9915738 C54.4485806,19.7922517 53.5407607,21.2553677 52.7417329,22.5475653 C51.9980154,23.7513252 51.3544048,24.7869162 51.3544048,26.981361 C51.3544048,29.1730565 51.9980154,30.2095639 52.7417329,31.4133239" id="Fill-12" fill="#FFDD00"></path>
            <path d="M58.3538062,31.8339754 C59.0696401,33.0171153 59.7841026,34.431201 59.8019299,36.8772119 L59.8019299,36.9702318 C59.8019299,37.7794591 59.7260497,38.476421 59.6012587,39.0895276 C59.3411633,39.14314 59.0824392,39.2013347 58.8269148,39.2659446 C58.273355,39.4020378 57.7252804,39.5619587 57.1868051,39.7420415 C57.448729,39.1018997 57.627916,38.3591152 57.665399,37.365681 C57.6717986,37.2378359 57.673627,37.106325 57.673627,36.9702318 C57.673627,34.775787 57.0304736,33.7392796 56.2876702,32.538269 C55.4863569,31.2460714 54.5799082,29.7824972 54.5799082,26.981361 C54.5799082,24.1811414 55.4863569,22.7143596 56.2876702,21.4226202 C57.0304736,20.2234425 57.673627,19.1851022 57.673627,16.9915738 C57.673627,14.797129 57.0304736,13.7610798 56.2876702,12.5591526 C55.8086193,11.7847506 55.2907139,10.9516955 54.953367,9.80338088 C54.7970354,9.2755044 54.6791011,8.67843584 54.6210482,7.99384601 C54.5968214,7.71891035 54.5844794,7.42793678 54.5799082,7.12184174 L54.5799082,7.00316118 C54.5799082,6.37310029 54.6256193,5.80994041 54.7060706,5.30176766 L56.4755423,5.47543535 L56.8288882,5.50842763 C56.7530079,5.94420066 56.7100397,6.43450258 56.7100397,7.00316118 C56.7100397,7.08884946 56.7100397,7.17407951 56.7136966,7.25701844 C56.7173534,7.5040023 56.732438,7.73586471 56.7548364,7.95260566 C56.8224886,8.63536256 56.9673924,9.1902744 57.1602927,9.68424208 C57.4103318,10.3257586 57.7412792,10.8627997 58.0950822,11.4337494 C58.8963955,12.7264052 59.8019299,14.1904376 59.8019299,16.9915738 C59.8019299,19.7922517 58.8963955,21.2553677 58.0950822,22.5475653 C57.3522788,23.7513252 56.7100397,24.7869162 56.7100397,26.981361 C56.7100397,28.3418343 56.9564218,29.2582866 57.3207382,30.0423114 C57.5456362,30.523907 57.8135026,30.9569307 58.0950822,31.4133239 C58.1814759,31.5521664 58.2683267,31.6914671 58.3538062,31.8339754" id="Fill-14" fill="#FFDD00"></path>
            <path d="M80.3796218,6.61275254 C80.3511152,7.13742142 79.512319,7.53561991 78.5025635,7.5021694 L1.95953802,4.99292326 C0.949782616,4.95993098 0.164468083,4.31108282 0.203779521,3.54309587 L0.30982898,1.45312662 C0.349140418,0.685139669 1.1979932,0.12060511 2.20500595,0.190255478 L78.6031277,5.53592119 C79.6101404,5.60602979 80.4050544,6.08808365 80.3796218,6.61275254" id="Fill-16" fill="#E54359"></path>
            <path d="M61.583058,58.0390098 C69.9554799,58.3629757 78.2442508,58.7515514 86.6313,58.5251878 C86.8347144,58.519689 87.0376712,58.5123574 87.2410848,58.5068587 C85.9570632,46.8615005 76.1132052,37.801454 64.1543002,37.801454 C52.2827033,37.801454 42.4978122,46.7299896 41.0995136,58.2530014 C47.9269046,58.0999539 54.7574954,57.7741551 61.583058,58.0390098" id="Fill-18" fill="#F9A51A"></path>
            <path d="M52.0560682,45.3265806 C52.4139852,45.7687687 52.7531606,46.2214961 53.0740517,46.6824716 C53.1567886,46.8025268 53.2399825,46.9221238 53.3195196,47.0458449 C53.7971993,46.6458135 54.2977344,46.2732757 54.8192966,45.9277732 C54.8202109,45.9085277 54.8229535,45.8897404 54.8247819,45.8700367 C54.8288959,45.817799 54.8343813,45.7669358 54.8380382,45.7169892 C54.8398666,45.6936197 54.8444377,45.6702501 54.8476374,45.6468806 C54.8476374,45.6372578 54.8494659,45.6253439 54.8522086,45.6157212 C54.8631792,45.5089546 54.879178,45.404479 54.8942626,45.3013781 C54.9111757,45.1914038 54.929003,45.082346 54.9504871,44.9746629 C54.9674002,44.8779772 54.9888843,44.7831244 55.0085401,44.6901045 C55.0396235,44.5558442 55.0711641,44.4279991 55.1059045,44.3029034 C55.120989,44.2479163 55.1360737,44.1933874 55.1511583,44.1416078 C55.1657858,44.0925777 55.1808705,44.0440057 55.195955,43.9977248 C55.2192677,43.9239504 55.2425802,43.8524672 55.2672642,43.7828168 C55.2869199,43.726455 55.3065756,43.6700932 55.3280598,43.6164807 C55.3513724,43.5500379 55.3765134,43.4863445 55.4030258,43.4221929 C55.4181104,43.3791196 55.4363948,43.3369628 55.4555934,43.2957225 C55.474792,43.2430265 55.4985617,43.1912469 55.5218743,43.1403838 C55.5387874,43.1018928 55.5566146,43.0634018 55.5735277,43.0239944 C54.3137333,43.6627615 53.1353044,44.4380802 52.0560682,45.3265806 M52.0560682,45.3265806 C52.4139852,45.7687687 52.7531606,46.2214961 53.0740517,46.6824716 C53.1567886,46.8025268 53.2399825,46.9221238 53.3195196,47.0458449 C53.7971993,46.6458135 54.2977344,46.2732757 54.8192966,45.9277732 C54.8202109,45.9085277 54.8229535,45.8897404 54.8247819,45.8700367 C54.8288959,45.817799 54.8343813,45.7669358 54.8380382,45.7169892 C54.8398666,45.6936197 54.8444377,45.6702501 54.8476374,45.6468806 C54.8476374,45.6372578 54.8494659,45.6253439 54.8522086,45.6157212 C54.8631792,45.5089546 54.879178,45.404479 54.8942626,45.3013781 C54.9111757,45.1914038 54.929003,45.082346 54.9504871,44.9746629 C54.9674002,44.8779772 54.9888843,44.7831244 55.0085401,44.6901045 C55.0396235,44.5558442 55.0711641,44.4279991 55.1059045,44.3029034 C55.120989,44.2479163 55.1360737,44.1933874 55.1511583,44.1416078 C55.1657858,44.0925777 55.1808705,44.0440057 55.195955,43.9977248 C55.2192677,43.9239504 55.2425802,43.8524672 55.2672642,43.7828168 C55.2869199,43.726455 55.3065756,43.6700932 55.3280598,43.6164807 C55.3513724,43.5500379 55.3765134,43.4863445 55.4030258,43.4221929 C55.4181104,43.3791196 55.4363948,43.3369628 55.4555934,43.2957225 C55.474792,43.2430265 55.4985617,43.1912469 55.5218743,43.1403838 C55.5387874,43.1018928 55.5566146,43.0634018 55.5735277,43.0239944 C54.3137333,43.6627615 53.1353044,44.4380802 52.0560682,45.3265806 M87.4560176,55.7933812 L87.4391048,55.6925714 C86.9509112,53.1498748 86.0572616,50.7235676 84.7823832,48.4805508 C84.4340648,47.8738594 84.052836,47.2676263 83.6464648,46.6824716 C82.9379448,45.6620021 82.1380032,44.6841475 81.260352,43.7727358 C81.1538456,43.6627615 81.0468824,43.5518709 80.9380896,43.442813 C79.7962298,42.2972478 78.5414636,41.270363 77.2149311,40.3924018 C73.3678955,37.8464976 68.8745068,36.5011458 64.2211297,36.5011458 C62.7890049,36.5011458 61.376993,36.6276162 59.9946931,36.8773494 C59.2724597,37.006111 58.5607398,37.1678648 57.8581622,37.3658185 C56.6459071,37.7012399 55.4647356,38.1365547 54.3237897,38.6635148 C53.4113986,39.0841663 52.52552,39.565762 51.6720961,40.1046358 C50.717651,40.7039956 49.8025173,41.3771298 48.9330946,42.1199142 C48.4421587,42.5396494 47.9626506,42.9800046 47.5009698,43.442813 C47.4538874,43.4900103 47.4081765,43.5367494 47.3610942,43.5848631 C47.8803708,44.0137627 48.3813631,44.4710724 48.8590428,44.952668 L48.9330946,45.0259842 L49.0062321,44.952668 C49.1739914,44.7831244 49.3444933,44.6186212 49.5168237,44.4591586 L49.5195663,44.4577838 C49.8400002,44.152147 50.1695764,43.864381 50.5041807,43.5848631 C51.3836598,42.8512431 52.3147924,42.1941469 53.2861506,41.6176985 C54.5852565,40.8474204 55.9547572,40.2191924 57.3804825,39.7417208 C58.1680826,39.478699 58.9753384,39.259667 59.7940219,39.0905815 C61.2339176,38.7876941 62.7158674,38.6346466 64.2211297,38.6346466 C68.4567086,38.6346466 72.5446409,39.8581102 76.0392449,42.1726102 C77.2496714,42.9717566 78.3906174,43.9069961 79.4319134,44.952668 C79.5333917,45.0525614 79.6353272,45.1574951 79.7317773,45.2569302 C80.5244056,46.0826536 81.2548672,46.9734451 81.899392,47.9027277 C82.2710216,48.4361029 82.6188824,48.9873489 82.93246,49.5404278 C84.076148,51.5479163 84.8829472,53.7199081 85.3277144,55.9959171 L85.346456,56.0958104 C85.3894248,56.3217158 85.4305648,56.5480796 85.4653048,56.7771926 L87.6187488,56.7771926 C87.5721232,56.4468116 87.5177272,56.1191799 87.4560176,55.7933812 M52.0560682,45.3265806 C52.4139852,45.7687687 52.7531606,46.2214961 53.0740517,46.6824716 C53.1567886,46.8025268 53.2399825,46.9221238 53.3195196,47.0458449 C53.7971993,46.6458135 54.2977344,46.2732757 54.8192966,45.9277732 C54.8202109,45.9085277 54.8229535,45.8897404 54.8247819,45.8700367 C54.8288959,45.817799 54.8343813,45.7669358 54.8380382,45.7169892 C54.8398666,45.6936197 54.8444377,45.6702501 54.8476374,45.6468806 C54.8476374,45.6372578 54.8494659,45.6253439 54.8522086,45.6157212 C54.8631792,45.5089546 54.879178,45.404479 54.8942626,45.3013781 C54.9111757,45.1914038 54.929003,45.082346 54.9504871,44.9746629 C54.9674002,44.8779772 54.9888843,44.7831244 55.0085401,44.6901045 C55.0396235,44.5558442 55.0711641,44.4279991 55.1059045,44.3029034 C55.120989,44.2479163 55.1360737,44.1933874 55.1511583,44.1416078 C55.1657858,44.0925777 55.1808705,44.0440057 55.195955,43.9977248 C55.2192677,43.9239504 55.2425802,43.8524672 55.2672642,43.7828168 C55.2869199,43.726455 55.3065756,43.6700932 55.3280598,43.6164807 C55.3513724,43.5500379 55.3765134,43.4863445 55.4030258,43.4221929 C55.4181104,43.3791196 55.4363948,43.3369628 55.4555934,43.2957225 C55.474792,43.2430265 55.4985617,43.1912469 55.5218743,43.1403838 C55.5387874,43.1018928 55.5566146,43.0634018 55.5735277,43.0239944 C54.3137333,43.6627615 53.1353044,44.4380802 52.0560682,45.3265806 M52.0560682,45.3265806 C52.4139852,45.7687687 52.7531606,46.2214961 53.0740517,46.6824716 C53.1567886,46.8025268 53.2399825,46.9221238 53.3195196,47.0458449 C53.7971993,46.6458135 54.2977344,46.2732757 54.8192966,45.9277732 C54.8202109,45.9085277 54.8229535,45.8897404 54.8247819,45.8700367 C54.8288959,45.817799 54.8343813,45.7669358 54.8380382,45.7169892 C54.8398666,45.6936197 54.8444377,45.6702501 54.8476374,45.6468806 C54.8476374,45.6372578 54.8494659,45.6253439 54.8522086,45.6157212 C54.8631792,45.5089546 54.879178,45.404479 54.8942626,45.3013781 C54.9111757,45.1914038 54.929003,45.082346 54.9504871,44.9746629 C54.9674002,44.8779772 54.9888843,44.7831244 55.0085401,44.6901045 C55.0396235,44.5558442 55.0711641,44.4279991 55.1059045,44.3029034 C55.120989,44.2479163 55.1360737,44.1933874 55.1511583,44.1416078 C55.1657858,44.0925777 55.1808705,44.0440057 55.195955,43.9977248 C55.2192677,43.9239504 55.2425802,43.8524672 55.2672642,43.7828168 C55.2869199,43.726455 55.3065756,43.6700932 55.3280598,43.6164807 C55.3513724,43.5500379 55.3765134,43.4863445 55.4030258,43.4221929 C55.4181104,43.3791196 55.4363948,43.3369628 55.4555934,43.2957225 C55.474792,43.2430265 55.4985617,43.1912469 55.5218743,43.1403838 C55.5387874,43.1018928 55.5566146,43.0634018 55.5735277,43.0239944 C54.3137333,43.6627615 53.1353044,44.4380802 52.0560682,45.3265806 M52.0560682,45.3265806 C52.4139852,45.7687687 52.7531606,46.2214961 53.0740517,46.6824716 C53.1567886,46.8025268 53.2399825,46.9221238 53.3195196,47.0458449 C53.7971993,46.6458135 54.2977344,46.2732757 54.8192966,45.9277732 C54.8202109,45.9085277 54.8229535,45.8897404 54.8247819,45.8700367 C54.8288959,45.817799 54.8343813,45.7669358 54.8398666,45.7169892 C54.8426092,45.6936197 54.8444377,45.6702501 54.8476374,45.6468806 C54.8476374,45.6372578 54.8494659,45.6253439 54.8522086,45.6157212 C54.8631792,45.5089546 54.879178,45.404479 54.8942626,45.3013781 C54.9111757,45.1914038 54.929003,45.082346 54.9504871,44.9746629 C54.9674002,44.8779772 54.9888843,44.7831244 55.0085401,44.6901045 C55.0396235,44.5558442 55.0711641,44.4279991 55.1059045,44.3029034 C55.120989,44.2479163 55.1360737,44.1933874 55.1511583,44.1416078 C55.1657858,44.0925777 55.1808705,44.0440057 55.195955,43.9977248 C55.2192677,43.9239504 55.2425802,43.8524672 55.2672642,43.7828168 C55.2869199,43.726455 55.3065756,43.6700932 55.3280598,43.6164807 C55.3513724,43.5500379 55.3765134,43.4863445 55.4030258,43.4221929 C55.4181104,43.3791196 55.4363948,43.3369628 55.4555934,43.2957225 C55.474792,43.2430265 55.4985617,43.1912469 55.5218743,43.1403838 C55.5387874,43.1018928 55.5566146,43.0634018 55.5735277,43.0239944 C54.3137333,43.6627615 53.1353044,44.4380802 52.0560682,45.3265806 M45.9367402,45.4177675 C45.898343,45.3829423 45.8581174,45.3499501 45.8174346,45.3169578 C45.3662673,45.8732442 44.9448121,46.4469434 44.5494122,47.0385133 C45.0261776,47.4344206 45.4759736,47.8541558 45.9019999,48.2981768 C45.9778801,48.3733259 46.0501034,48.4503079 46.1209554,48.525457 C46.5126985,47.9205985 46.9341537,47.3322362 47.3885207,46.7631194 C46.9277542,46.2906882 46.444132,45.8420849 45.9367402,45.4177675 M41.3802704,54.0356258 C41.2682785,54.4590268 41.1677143,54.8842606 41.0781208,55.3145349 C40.9784709,55.797047 40.8925342,56.2864325 40.8212251,56.7771926 L42.9230158,56.7771926 C42.5550424,55.7782597 42.0325659,54.8544759 41.3802704,54.0356258 M44.040649,49.7218853 C43.8148368,49.4955216 43.5807966,49.2764895 43.336243,49.0643309 C42.9870111,49.7218853 42.6693198,50.3950194 42.3845405,51.0814422 C42.9710122,51.6446021 43.4966885,52.2590833 43.957455,52.9143466 C44.161326,52.3424804 44.3889666,51.7820698 44.640377,51.2308238 C44.7281421,51.0411182 44.8172785,50.8532456 44.9100718,50.6644564 C44.6344346,50.3386577 44.3450841,50.025231 44.040649,49.7218853 M49.4857402,49.3319349 L49.4839118,49.330102 C49.309753,49.0721207 49.1259949,48.8200963 48.9367514,48.5703631 C48.4805559,49.1706393 48.0563581,49.7997838 47.6733001,50.4532142 C48.1464087,51.1341382 48.5687781,51.8485126 48.934923,52.5894642 C49.2466718,51.9649021 49.5927039,51.3614183 49.9748477,50.7854281 C50.0488994,50.6727045 50.1247796,50.5613555 50.2006598,50.4532142 C49.9748477,50.0710536 49.7376077,49.6971411 49.4857402,49.3319349 M46.4619593,52.8891442 C46.3376254,53.1883658 46.223348,53.490795 46.1145559,53.7978065 C45.8754875,54.4759811 45.6716166,55.1724848 45.5093426,55.8850264 C45.6163063,56.1792075 45.710928,56.4756798 45.7959504,56.7771926 L47.4931989,56.7771926 C47.5608511,56.4468116 47.6367314,56.1191799 47.722668,55.7952141 C47.4100049,54.7848255 46.9867213,53.811095 46.4619593,52.8891442 M81.892992,52.6779019 L81.8020272,52.4671179 C81.1620736,51.008126 80.3388192,49.6270325 79.3569474,48.3678272 C78.1954315,46.8740101 76.8241022,45.5630252 75.2795285,44.4710724 C72.0322209,42.1726102 68.2094122,40.9583111 64.2211297,40.9583111 C62.3222958,40.9583111 60.4883716,41.2355379 58.757297,41.7510422 C57.6501773,42.0814233 56.5851115,42.5103229 55.5735277,43.0239944 C54.3137333,43.6627615 53.1353044,44.4380802 52.0560682,45.3265806 C51.8366556,45.5048305 51.6240996,45.6890374 51.4152004,45.8796594 C51.0943094,46.1669672 50.7848461,46.4629813 50.484525,46.7718257 C50.7784466,47.1397812 51.0586548,47.518276 51.3265211,47.9027277 C51.3562333,47.9453427 51.3836598,47.988416 51.413372,48.0314892 C51.5294778,48.1959924 51.6400984,48.3641614 51.7479763,48.5350797 C52.2398264,48.0053703 52.763217,47.5086532 53.3195196,47.0458449 C53.7971993,46.6458135 54.2977344,46.2732757 54.8192966,45.9277732 C55.5854126,45.4196004 56.3967823,44.9696224 57.2415211,44.5892947 C59.3743952,43.6279364 61.7367383,43.0918118 64.2211297,43.0918118 C67.7655586,43.0918118 71.1655409,44.1718507 74.0508175,46.2137062 C75.4248894,47.1865203 76.6444582,48.3527058 77.6784404,49.6797285 C78.5236363,50.7657244 79.2362704,51.9488642 79.7976011,53.1998214 L79.8533685,53.3276666 C80.3433904,54.4439053 80.706792,55.5958858 80.9467752,56.7771926 L83.1116464,56.7771926 C82.8629792,55.3727296 82.4538656,54.00355 81.892992,52.6779019 M51.4060582,52.8873112 C51.3649183,52.9574198 51.3265211,53.0289031 51.2872097,53.1013028 C50.8195864,53.950854 50.4337858,54.8512683 50.1421498,55.7915482 C50.2312862,56.117347 50.3062522,56.4458951 50.3739045,56.7771926 L52.0693245,56.7771926 C52.1356054,56.5434973 52.2041718,56.3153007 52.283709,56.0907699 C52.3070215,56.0206614 52.3326197,55.9519274 52.3577607,55.8850264 C52.1246347,54.8645569 51.8078577,53.8628746 51.4060582,52.8873112 M73.7546104,48.9282377 C71.0924033,46.6627678 67.7084199,45.4159346 64.2211297,45.4159346 C61.5625795,45.4159346 59.0681317,46.1238939 56.9110308,47.3606462 C56.2066247,47.767551 55.5387874,48.2266935 54.9139183,48.7385321 C54.7818136,48.8448406 54.65428,48.9543566 54.5290319,49.0643309 C53.9649586,49.559215 53.4406537,50.0944231 52.9570316,50.6662893 C53.3176911,51.3980764 53.6372109,52.149109 53.9096482,52.9143466 C54.3736146,52.2531263 54.9024906,51.6381869 55.4825629,51.0796093 L55.4825629,51.0777763 C55.5237027,51.0383689 55.5639284,50.9998779 55.6041541,50.9632198 C56.1408009,50.4596294 56.7208731,50.0041526 57.3379713,49.6022883 C59.3199991,48.304592 61.6837136,47.5498936 64.2211297,47.5498936 C67.2023994,47.5498936 70.099561,48.6166439 72.3768817,50.5544822 C74.319598,52.2091366 75.6954983,54.3811283 76.368821,56.7771926 L78.5675188,56.7771926 C77.8471138,53.7464852 76.1791205,50.9930046 73.7546104,48.9282377 M64.2211297,50.2868781 C62.1623074,50.2868781 60.2465606,50.921063 58.6617611,52.005226 C58.0620331,52.4139637 57.5112159,52.8891442 57.015709,53.4193118 C56.8296653,53.6168072 56.6532209,53.823009 56.4845474,54.0356258 C55.8354516,54.8544759 55.3102325,55.7782597 54.9440876,56.7771926 L57.2566058,56.7771926 C57.4175084,56.449561 57.5994381,56.1343014 57.8028519,55.833705 C58.2860169,55.1220799 58.8825451,54.4938519 59.5691239,53.9774311 C60.8659442,53.0004931 62.4758847,52.4203788 64.2211297,52.4203788 C67.2727943,52.4203788 69.9199168,54.1996708 71.1833682,56.7771926 L73.4954292,56.7771926 C72.1044442,52.992245 68.4717932,50.2868781 64.2211297,50.2868781" id="Fill-20" fill="#FFDD00"></path>
            <path d="M31.4022047,58.0390098 C39.7755409,58.3629757 48.0633976,58.7515514 56.4513613,58.5251878 C56.6538609,58.519689 56.8577318,58.5123574 57.0602314,58.5068587 C55.7771244,46.8615005 45.932352,37.801454 33.9743613,37.801454 C22.10185,37.801454 12.316959,46.7299896 10.9195746,58.2530014 C17.7469656,58.0999539 24.5775564,57.7741551 31.4022047,58.0390098" id="Fill-22" fill="#F9A51A"></path>
            <path d="M56.8833757,55.7935186 L56.8664626,55.6922507 C56.7594989,55.1341313 56.6315082,54.5833435 56.4843189,54.0357633 C56.2173668,53.0272077 55.8818482,52.0401886 55.4827914,51.0797467 L55.4827914,51.0779138 C55.1961836,50.393324 54.8789494,49.7201899 54.5292605,49.0640101 C54.4254966,48.869264 54.3194471,48.6749762 54.2092837,48.4806882 C53.9327323,47.9972598 53.6346967,47.5165806 53.319291,47.0459823 C53.2397539,46.9222613 53.157017,46.8022061 53.0738231,46.682609 C52.7533892,46.2216336 52.4142138,45.7689062 52.0558398,45.326718 C51.9159642,45.1521338 51.7728888,44.9812155 51.6266137,44.8102972 C51.3267497,44.4556302 51.0122582,44.1101277 50.6872532,43.7728733 C50.6273718,43.7082634 50.5661191,43.6468611 50.5044093,43.5850006 C50.4577841,43.5364286 50.4107018,43.4901478 50.3649908,43.4424922 C50.244771,43.3228953 50.1222655,43.20284 49.9979317,43.0846177 C49.6518996,42.7510291 49.2962682,42.4284379 48.932866,42.1200518 C48.6000901,41.8354934 48.2590862,41.5596412 47.9107686,41.295703 C47.4966272,40.979527 47.0724294,40.6770978 46.6413749,40.3925394 C46.4768154,40.2834815 46.3108846,40.1767148 46.142211,40.0713228 C45.2110785,39.488001 44.2442914,38.9738713 43.2477922,38.5312249 C42.576298,38.2301703 41.8915476,37.9653157 41.1962837,37.7302457 C38.785487,36.9201019 36.2430426,36.5012833 33.6484877,36.5012833 C27.3321454,36.5012833 21.3938328,38.9669979 16.9274135,43.4424922 C13.2783065,47.1014277 10.9689881,51.7455493 10.2490402,56.7768718 L12.40157,56.7768718 C13.1046048,52.3174154 15.1862826,48.2075855 18.4335901,44.9523473 C22.4963814,40.8787172 27.8989614,38.634784 33.6484877,38.634784 C36.078483,38.634784 38.4604819,39.0375647 40.7094618,39.8197567 C41.3782134,40.0507026 42.0364514,40.3164738 42.6809762,40.614779 C43.5014881,40.9960231 44.3005159,41.4299632 45.0698316,41.9156829 C45.2037648,41.9999965 45.3349553,42.0847683 45.46706,42.1727478 C45.929655,42.4797592 46.3803652,42.8028086 46.8196477,43.1464782 C47.0038629,43.2876118 47.1830499,43.4356189 47.3608656,43.5850006 C47.8805994,44.013442 48.3811346,44.4712098 48.8588142,44.9523473 L48.932866,45.0256634 C49.0096604,45.1035619 49.0855406,45.1805438 49.1600495,45.2566094 C49.2171882,45.316637 49.2734127,45.3766646 49.3278088,45.4376087 C49.7337222,45.867883 50.1213513,46.3119042 50.4847535,46.7719631 C50.7786751,47.1399187 51.0588834,47.5184134 51.3267497,47.902407 C51.3560047,47.9454802 51.3838884,47.9885534 51.4131434,48.0316267 C51.5292493,48.1961298 51.6398698,48.3642989 51.7482049,48.5352172 C51.9639606,48.8674311 52.1678316,49.2019362 52.3589034,49.5405653 C52.5700882,49.9098955 52.769388,50.2851826 52.956803,50.6664268 C53.3174626,51.3982138 53.6369823,52.1492465 53.9094197,52.9144841 C54.2664224,53.9147916 54.5498305,54.9439674 54.755987,55.9955964 L54.7747284,56.0959478 C54.8172397,56.3213951 54.8574653,56.5477588 54.8926627,56.7768718 L57.0456496,56.7768718 C56.9994815,56.446949 56.9450854,56.1193174 56.8833757,55.7935186 M41.5619715,42.665799 C41.1871415,43.2743233 40.8443092,43.8498553 40.6070693,44.5738525 C41.6085966,45.0224558 42.5685271,45.5691196 43.4781755,46.2133855 C43.5494846,46.2637904 43.6207938,46.3155699 43.6934742,46.3700989 C43.7378138,45.4609782 43.8818034,44.7035305 44.0861314,44.0505583 C43.2747617,43.5231401 42.4336798,43.0594153 41.5619715,42.665799 M52.3579893,55.8847057 C52.1248633,54.8646943 51.8076291,53.8630121 51.4062868,52.8874487 C51.3784031,52.8177983 51.3500623,52.748148 51.3212644,52.6780394 L51.2293853,52.4667971 C50.9276929,51.7767086 50.5812037,51.1031162 50.2008884,50.4533517 C49.9750762,50.071191 49.7373791,49.6968203 49.4855117,49.3316142 L49.4841403,49.3302394 C49.3099815,49.0722582 49.1257663,48.8197756 48.9365229,48.5700424 C48.8857837,48.5022249 48.8359587,48.4339492 48.7838482,48.3679646 C48.3473084,47.8075542 47.8815136,47.272346 47.3887493,46.7627986 C46.9279827,46.2903675 46.4439034,45.8422224 45.9369688,45.417905 C45.8985716,45.3830798 45.8583459,45.3496293 45.817206,45.316637 C45.4565465,45.0242888 45.0876589,44.7401886 44.7064294,44.4712098 C44.5011871,44.3259522 44.2950306,44.1852768 44.0861314,44.0505583 C43.2747617,43.5231401 42.4336798,43.0594153 41.5619715,42.665799 C40.906019,42.3642862 40.2326964,42.1030974 39.5461175,41.8817742 C37.6596257,41.2723334 35.6743981,40.9584486 33.6484877,40.9584486 C24.2283702,40.9584486 16.371111,47.7942656 14.7533996,56.7768718 L16.9200998,56.7768718 C18.5085561,48.9764889 25.4072562,43.0919493 33.6484877,43.0919493 C35.349393,43.0919493 37.0169294,43.3407661 38.6113282,43.8274022 C39.2910503,44.0322293 39.9579734,44.281046 40.6070693,44.5738525 C41.6085966,45.0224558 42.5685271,45.5691196 43.4781755,46.2133855 C43.5494846,46.2637904 43.6207938,46.3155699 43.6934742,46.3700989 C43.9869386,46.583174 44.2726322,46.8067883 44.5496407,47.0386507 C45.0264062,47.4340998 45.4762022,47.8542932 45.9022284,48.2983143 C45.9781086,48.3734634 46.050332,48.4504454 46.1207269,48.5255944 C46.4653876,48.8940082 46.7949638,49.2798346 47.1053413,49.679866 C47.3037269,49.9314321 47.4929703,50.1894134 47.6735286,50.4533517 C48.1466373,51.1342756 48.5690066,51.8486502 48.9346944,52.5896018 C49.0366299,52.790763 49.1321658,52.9942154 49.2249591,53.1999589 L49.2811836,53.327804 C49.6331581,54.1306162 49.9215943,54.9540484 50.1419213,55.7916858 C50.2310577,56.1174845 50.3060237,56.4460326 50.374133,56.7768718 L52.539919,56.7768718 C52.4873513,56.4781085 52.4256415,56.1811779 52.3579893,55.8847057 M47.7224394,55.7953515 C47.4097763,54.784963 46.9869498,53.8112326 46.4617307,52.8892816 C46.0165058,52.1061732 45.4986006,51.3615558 44.9103003,50.6645938 C44.634206,50.3387951 44.3448556,50.0253685 44.0404205,49.7220228 C43.8146082,49.4956591 43.5805681,49.2761688 43.3360144,49.0640101 C43.2871036,49.0177293 43.234536,48.9728231 43.1815113,48.9283752 C42.2828335,48.1649705 41.301419,47.5147477 40.2624085,46.990537 C39.585429,46.6491586 38.8819371,46.3604761 38.1624464,46.1276972 C36.7134085,45.6603066 35.1903189,45.4160721 33.6484877,45.4160721 C26.6899062,45.4160721 20.8421013,50.2714359 19.2984418,56.7768718 L21.4966825,56.7768718 C22.990517,51.4582415 27.871992,47.5495728 33.6484877,47.5495728 C35.2232307,47.5495728 36.7751183,47.8487945 38.2250704,48.4142455 C39.1141489,48.7615809 39.9639158,49.2101842 40.7570012,49.7531822 C41.1194893,50.001999 41.4691782,50.2668536 41.8042397,50.5541614 C42.0030824,50.723705 42.1968969,50.8996638 42.3843119,51.0815796 C42.9707837,51.6442813 43.496917,52.2592207 43.9576836,52.9144841 C44.6058652,53.8346021 45.1260561,54.8330767 45.5091141,55.8847057 C45.6165349,56.179345 45.7111566,56.4753591 45.7957218,56.7768718 L47.9939626,56.7768718 C47.9144255,56.4460326 47.8262034,56.1193174 47.7224394,55.7953515 M41.3800418,54.0357633 C40.9137898,53.4469428 40.3798857,52.9089854 39.7915854,52.44022 C38.1043934,51.0930353 35.9687767,50.2865574 33.6484877,50.2865574 C29.3950816,50.2865574 25.7615163,52.9923825 24.3723598,56.7768718 L26.684878,56.7768718 C27.9451295,54.19935 30.5931662,52.4205163 33.6484877,52.4205163 C36.7001523,52.4205163 39.3472748,54.19935 40.610269,56.7768718 L42.9227872,56.7768718 C42.5548138,55.7783972 42.0327945,54.8546134 41.3800418,54.0357633" id="Fill-24" fill="#FFDD00"></path>
            <path d="M58.7055522,85.735708 C58.7055522,85.735708 59.3445916,87.5819008 60.1331059,89.8597424 C60.9216202,92.1375848 59.5146364,93.9837776 56.9895622,93.9837776 L40.8257048,93.9837776 C38.3006306,93.9837776 36.8927326,92.1375848 37.681247,89.8597424 L39.1088006,85.735708 L58.7055522,85.735708 Z" id="Fill-26" fill="#E54359"></path>
            <path d="M87.9302232,57.5950804 C87.1828488,61.4066051 85.8490024,65.0197179 84.0178208,68.3418572 C83.880688,68.5915904 83.7403552,68.8376578 83.5991088,69.0837253 C83.2731896,69.6459686 82.9321856,70.1981311 82.57884,70.741129 C82.430736,70.9702421 82.2780616,71.2011881 82.1199016,71.4284682 C82.1066456,71.4472555 82.0938464,71.4655846 82.081504,71.4843718 C82.013852,71.5833486 81.9439144,71.6837002 81.8735192,71.7813023 C81.5503424,72.248693 81.2111672,72.7082938 80.8665064,73.1605629 C80.6013832,73.5069818 80.3307736,73.8460691 80.05468,74.1814906 C79.6684219,74.6507142 79.2702794,75.1107732 78.8611661,75.5607512 C78.631697,75.8150667 78.3962855,76.0680075 78.15676,76.3177407 C70.8974002,83.9178792 60.4803265,88.6811392 48.9081364,88.6811392 C37.3332036,88.6811392 26.9152156,83.9178792 19.6540274,76.3204901 L19.6412283,76.3053686 C19.406731,76.0593012 19.1754335,75.8104844 18.9496213,75.5607512 C18.5386796,75.1107732 18.1423655,74.6507142 17.7556506,74.1814906 L17.7515366,74.1755337 C17.4763566,73.8424034 17.2066618,73.5042325 16.9442809,73.1605629 C16.5968774,72.712876 16.2650158,72.2546499 15.9390966,71.7918415 L15.932697,71.7813023 C15.8632163,71.6837002 15.795107,71.5833486 15.7292832,71.4843718 C15.7183126,71.4669592 15.7059706,71.4500049 15.695457,71.4330505 L15.690886,71.4284682 C15.5345545,71.2011881 15.382794,70.9702421 15.2319478,70.741129 C14.8767735,70.1981311 14.537141,69.6459686 14.2116789,69.0837253 C14.0713462,68.8468223 13.9337562,68.6039625 13.8025657,68.3624774 L13.7902237,68.3418572 C11.9617847,65.0197179 10.6279386,61.4066051 9.88239256,57.5950804 L87.9302232,57.5950804 Z" id="Fill-28" fill="#BF242A"></path>
            <path d="M89.3399496,57.5548023 C89.3399496,58.6664589 88.4408152,59.5677896 87.3318664,59.5677896 L9.60218424,59.5677896 C8.49232184,59.5677896 7.59318698,58.6664589 7.59318698,57.5548023 C7.59318698,56.4422294 8.49232184,55.5408986 9.60218424,55.5408986 L87.3318664,55.5408986 C88.4408152,55.5408986 89.3399496,56.4422294 89.3399496,57.5548023" id="Fill-30" fill="#E54359"></path>
            <path d="M78.1568514,76.317924 C78.3959198,76.0681908 78.6317885,75.8147918 78.8612575,75.5609345 C79.2703707,75.1104982 79.6685134,74.6504392 80.0547712,74.1816739 C80.1521352,74.0634516 80.2449288,73.9411052 80.3404648,73.8219665 C79.0185033,73.2606394 77.780193,72.4569109 76.7004998,71.405282 C74.7107011,69.4651526 71.4725358,69.4651526 69.4822799,71.405282 C67.1693046,73.6597544 64.1308962,74.7874489 61.0920307,74.7874489 C58.0536223,74.7874489 55.015671,73.6597544 52.7022386,71.405282 C50.7124399,69.4651526 47.4742746,69.4651526 45.4840187,71.405282 C40.8576111,75.9151433 33.3308422,75.9151433 28.7039774,71.405282 C26.7141787,69.4651526 23.4760134,69.4651526 21.4857575,71.405282 C20.329727,72.53206 18.9922239,73.3770289 17.5646702,73.9411052 C17.6282085,74.017629 17.6880898,74.0982768 17.7516281,74.1752588 L17.7557421,74.1816739 C18.1424569,74.6504392 18.538771,75.1104982 18.9497127,75.5609345 C19.175525,75.8106678 19.4068225,76.0594845 19.6413198,76.3055519 L19.6541188,76.3206734 C20.1564824,76.846717 20.6762162,77.3580973 21.2082919,77.8552726 C21.3010852,77.7705008 21.3947927,77.6871036 21.4857575,77.598666 C23.4760134,75.6585366 26.7141787,75.6585366 28.7039774,77.598666 C33.3308422,82.109444 40.8576111,82.109444 45.4840187,77.598666 C47.4742746,75.6585366 50.7124399,75.6585366 52.7022386,77.598666 C55.015671,79.8540549 58.0536223,80.9817496 61.0920307,80.9817496 C64.1308962,80.9817496 67.1693046,79.8540549 69.4822799,77.598666 C71.4725358,75.6585366 74.7107011,75.6585366 76.7004998,77.598666 C76.7292978,77.627076 76.759467,77.6531949 76.7891791,77.6811467 C77.2568023,77.2371256 77.7129978,76.7834818 78.1568514,76.317924" id="Fill-32" fill="#E54359"></path>
            <path d="M81.4815936,66.4777018 C76.8551858,61.9678405 69.3279597,61.9678405 64.7015521,66.4777018 C62.7112962,68.417831 59.473588,68.417831 57.4833322,66.4777018 C52.8569246,61.9678405 45.3296985,61.9678405 40.7032909,66.4777018 C38.713035,68.417831 35.4753268,68.417831 33.485071,66.4777018 C28.8586634,61.9678405 21.3314373,61.9678405 16.7050296,66.4777018 C15.8292074,67.3322934 14.7106598,67.8093068 13.5642286,67.9114912 C13.6401089,68.0544578 13.7123322,68.1997154 13.7900409,68.3417655 L13.8023828,68.3623857 C13.9340304,68.6043291 14.0711634,68.8467307 14.211496,69.0836336 C14.5374153,69.645877 14.8765907,70.1980395 15.231765,70.7414957 C15.3826112,70.9706087 15.5343716,71.2015546 15.6907031,71.4288348 L15.6952742,71.4329588 C15.7057878,71.4503714 15.7185868,71.4673258 15.7291003,71.4842802 C15.7953813,71.5837152 15.8630335,71.6836085 15.9329713,71.7812106 L15.9389137,71.7922081 C16.1638117,72.1106752 16.3987661,72.4231854 16.6328063,72.7352374 C16.7370273,72.8768293 16.8371343,73.0216287 16.944098,73.1604713 C17.1470547,73.4253259 17.3559539,73.6833072 17.564853,73.9408303 C18.9924068,73.3772122 20.3299098,72.5322433 21.4859404,71.4054653 C23.4761962,69.4653359 26.7139045,69.4653359 28.7041602,71.4054653 C33.3305679,75.9153266 40.8577939,75.9153266 45.4842016,71.4054653 C47.4744574,69.4653359 50.7121657,69.4653359 52.7024214,71.4054653 C55.0158538,73.6599377 58.0538051,74.7876322 61.0922136,74.7876322 C64.1310791,74.7876322 67.1690304,73.6599377 69.4824628,71.4054653 C71.4727186,69.4653359 74.7104269,69.4653359 76.7006826,71.4054653 C77.7799187,72.4570942 79.018229,73.2608227 80.3406472,73.8216915 C80.5166344,73.6026594 80.6939936,73.385002 80.866324,73.1604713 C81.024484,72.9538113 81.1725872,72.7389032 81.3270904,72.5285774 C81.5099344,72.2797606 81.6987208,72.0346097 81.8733368,71.7812106 C81.9441888,71.6836085 82.0136688,71.5837152 82.0813216,71.4842802 C82.0941208,71.4654929 82.1064624,71.4476221 82.1197184,71.4288348 C82.2778784,71.2015546 82.4305536,70.9706087 82.5786568,70.7414957 C82.93246,70.1980395 83.2734632,69.645877 83.5993832,69.0836336 C83.7401728,68.8375662 83.8805056,68.5914988 84.0180952,68.3417655 C84.1044888,68.184594 84.18494,68.0223819 84.2699624,67.8638357 C83.2483224,67.7029983 82.2673648,67.2438558 81.4815936,66.4777018" id="Fill-34" fill="#FFDD00"></path>
        </g>
    </g>
</svg>